PathFileType	4	(X/Y/Z)	F:\MotionCapture\20160217\3\Generated_files\EMG_Fprce_test07-Dynamic.trc
DataRate	CameraRate	NumFrames	NumMarkers	Units	OrigDataRate	OrigDataStartFrame	OrigNumFrames
120.00	120.00	       4	39	mm	120.00	188	       751
Frame#	Time	Top.Head			Front.Head			Rear.Head			R.Shoulder			R.Offset			R.Elbow			R.Wrist			L.Shoulder			L.Elbow			L.Wrist			R.ASIS			L.ASIS			V.Sacral			R.Thigh			R.Knee			R.Shank			R.Ankle			R.Heel			R.Toe			L.Thigh			L.Knee			L.Shank			L.Ankle			L.Heel			L.Toe			R1			R2			R3			R4			R5			R6			R7			L1			L2			L3			L4			L5			L6			L7			V_Mid_ASIS			V_Pelvis_Origin			V_R.Hip_JC			V_L.Hip_JC			V_R.Knee_JC			V_L.Knee_JC			V_R.Ankle_JC			V_L.Ankle_JC			V_Mid_Hip			V_Mid_Shoulder			V_R.Hand			V_L.Hand			V_R.Toe_Offset_Static			V_L.Toe_Offset_Static			V_R.Toe_Offset			V_L.Toe_Offset			
		X1	Y1	Z1	X2	Y2	Z2	X3	Y3	Z3	X4	Y4	Z4	X5	Y5	Z5	X6	Y6	Z6	X7	Y7	Z7	X8	Y8	Z8	X9	Y9	Z9	X10	Y10	Z10	X11	Y11	Z11	X12	Y12	Z12	X13	Y13	Z13	X14	Y14	Z14	X15	Y15	Z15	X16	Y16	Z16	X17	Y17	Z17	X18	Y18	Z18	X19	Y19	Z19	X20	Y20	Z20	X21	Y21	Z21	X22	Y22	Z22	X23	Y23	Z23	X24	Y24	Z24	X25	Y25	Z25	X26	Y26	Z26	X27	Y27	Z27	X28	Y28	Z28	X29	Y29	Z29	X30	Y30	Z30	X31	Y31	Z31	X32	Y32	Z32	X33	Y33	Z33	X34	Y34	Z34	X35	Y35	Z35	X36	Y36	Z36	X37	Y37	Z37	X38	Y38	Z38	X39	Y39	Z39	

188	1.558	2219.85742	124.32870	1682.61499	2104.40845	126.38000	1602.70264	2325.46313	112.40022	1611.09998	2297.03027	306.51514	1373.52100	2410.09912	17.11213	1254.42310	2453.56519	388.39783	1093.01807	2476.60352	427.86166	834.75830	2222.37354	-94.72845	1384.83777	2186.56812	-195.75732	1061.07043	1986.77502	-132.45338	911.90436	2249.35718	226.99896	910.30432	2254.99414	-63.73384	890.50812	2474.85132	93.74812	920.66797	2102.13916	196.56242	601.34247	2121.77222	241.23160	478.04907	2077.24146	172.98985	248.69307	2097.54370	246.95282	78.59585	2158.96680	184.71370	41.07301	1955.17041	228.11086	65.86809	2319.76050	-17.37194	563.11859	2480.97266	-64.54797	448.05945	2538.52808	11.50000	317.66800	2739.44702	-47.84136	125.14821	2801.77856	6.31124	143.28891	2628.04077	-33.26789	46.04893	1910.78125	213.26427	76.61647	1946.96533	193.71056	70.77054	2042.28857	157.11082	69.72795	2113.19580	154.18237	45.65506	2130.23267	227.76077	45.48335	2052.77393	256.37686	44.96931	1990.54944	267.12094	53.87159	2585.76563	-4.75246	41.11653	2616.68921	6.51170	48.56125	2693.35254	41.81414	91.27570	2767.74609	39.20765	127.36649	2780.10913	-32.83222	125.13865	2720.57251	-58.26441	71.05520	2666.31909	-66.19839	45.80951																																																	4004.12476	-367.87668	194.03656	2904.30054	-7.43378	-18.14104	
189	1.567	2209.73535	126.34897	1684.40515	2094.41309	128.36940	1604.08179	2315.67188	114.79472	1612.71716	2286.98608	308.93491	1374.56958	2399.91821	19.74856	1255.35645	2443.54688	390.10745	1093.99792	2467.40381	429.68893	835.88977	2212.86060	-92.34354	1386.35498	2177.98047	-194.17923	1062.75244	1979.18591	-131.62238	911.79071	2237.42871	228.95204	911.35822	2243.38232	-60.74889	891.62152	2463.69897	96.59779	921.39130	2092.78613	195.86766	601.12238	2113.04028	242.29086	479.16309	2071.62451	173.33380	248.97220	2092.86841	248.26727	78.51184	2156.54077	184.93283	42.41158	1952.03528	229.32919	63.37435	2307.56177	-17.73159	564.14771	2468.50220	-65.21077	448.73734	2529.37964	10.47620	318.82034	2733.88403	-49.12911	131.12987	2795.80713	5.82709	151.35077	2627.35083	-33.40606	45.96456	1907.48499	212.66736	74.03851	1942.94727	195.32335	67.27622	2039.64465	158.15553	68.57740	2110.35815	154.74886	45.77310	2127.50928	228.36505	45.99644	2050.69238	257.03079	45.36350	1988.00317	267.75952	52.68602	2585.82739	-4.53558	41.06604	2616.03320	6.70004	48.35996	2689.25732	40.92530	95.65468	2761.47607	37.87680	134.75809	2774.31470	-33.72971	132.51379	2718.33008	-58.18681	74.16140	2665.32324	-66.27748	46.73882																																																	2903.53198	85.12029	320.61356	1613.62793	173.16994	135.82445	
190	1.575	2200.21948	128.84299	1686.00732	2084.79028	130.83409	1605.94055	2305.63330	117.15221	1614.44604	2276.67090	312.12131	1375.83850	2389.42603	22.37678	1256.66614	2433.05811	392.09686	1094.76074	2457.73755	431.11121	836.54626	2202.79541	-90.31438	1388.00354	2169.58545	-192.35229	1064.39368	1971.98706	-131.27809	911.92389	2226.43164	230.58936	913.16559	2232.22705	-58.43073	892.85907	2452.49048	99.08478	922.74945	2084.31787	195.24533	602.79224	2104.25439	242.16228	481.27069	2067.39795	173.90022	249.06036	2090.87354	248.04597	78.48882	2154.54321	185.36731	43.45805	1949.47046	230.88176	60.03379	2294.97803	-17.42825	565.47296	2454.92725	-66.45022	449.38657	2517.60571	8.47243	319.39554	2727.57031	-50.86604	137.47441	2787.62134	4.09781	160.64400	2626.01685	-33.59197	46.03819	1904.89319	213.77000	69.71291	1940.87976	196.16327	65.12119	2036.89917	159.12094	66.47818	2108.47510	155.38217	45.61996	2125.78296	228.93062	46.32162	2048.59351	258.69952	46.06836	1986.01367	267.93182	50.02237	2585.75513	-4.33868	41.05872	2614.97021	7.13144	47.96827	2683.51245	39.30629	99.91801	2753.35913	36.26748	141.58916	2767.56030	-34.79121	140.27510	2713.92896	-59.14265	78.28206	2663.57837	-66.36378	47.88475																																																	6262.57031	885.48718	-412.74823	
191	1.583	2189.83105	131.01205	1688.23071	2075.41772	132.31589	1607.83228	2295.74194	119.54311	1616.54944	2266.30786	314.44455	1377.57153	2379.21021	24.86000	1258.19409	2422.25830	394.03943	1096.30005	2446.42065	431.75003	837.39563	2192.91870	-87.99435	1390.32886	2161.73315	-190.96402	1066.96692	1965.30603	-130.54633	911.91675	2214.77124	233.06644	915.15973	2219.92505	-55.42643	894.25604	2441.26221	101.54985	924.13544	2075.84570	195.02884	604.79480	2096.30151	242.56624	482.77869	2062.21875	174.38385	248.88899	2089.61670	248.89427	77.92639	2153.49487	185.97699	44.19358	1948.12793	231.64723	56.61126	2280.69897	-16.77584	566.97180	2440.27271	-67.51630	450.05560	2505.18115	7.09803	320.62387	2719.50122	-51.77934	143.38930	2777.74902	3.31599	169.88902	2624.62793	-33.94532	46.24226	1903.52124	215.66907	65.31211	1939.05066	197.07512	61.69005	2035.22900	159.40585	65.13305	2107.34009	155.72923	45.42899	2124.78784	229.71278	46.62326	2047.87109	258.87024	44.03261	1984.76013	270.17349	46.69020	2585.68164	-4.16270	41.09464	2613.53296	7.17601	47.95395	2677.34497	37.70177	103.64920	2744.10498	34.90810	149.27278	2759.28540	-35.39093	148.22906	2709.75000	-59.77557	83.52807	2661.45386	-65.94111	48.79850																																																	2760.58862	-21.89662	190.05193	3007.31470	73.54047	316.75055	
